<svg width="51" height="51" viewBox="0 0 51 51" fill="none" xmlns="http://www.w3.org/2000/svg">
<circle cx="25.2441" cy="25.7325" r="25.2441" fill="#A086EC"/>
<path d="M18.412 20.2025C18.1959 20.2031 17.9888 20.291 17.836 20.4469C17.6832 20.6028 17.5971 20.8141 17.5965 21.0345V21.0848C17.5965 21.5442 17.9616 21.9168 18.412 21.9168H24.6223C24.8384 21.9162 25.0455 21.8283 25.1983 21.6724C25.3511 21.5165 25.4372 21.3053 25.4378 21.0848V21.0345C25.4372 20.8141 25.3511 20.6028 25.1983 20.4469C25.0455 20.291 24.8384 20.2031 24.6223 20.2025H18.412ZM18.412 24.7739C18.1959 24.7745 17.9888 24.8623 17.836 25.0182C17.6832 25.1741 17.5971 25.3854 17.5965 25.6059V25.6562C17.5965 26.1156 17.9616 26.4882 18.412 26.4882H30.2232C30.4393 26.4875 30.6464 26.3997 30.7992 26.2438C30.952 26.0879 31.0381 25.8766 31.0387 25.6562V25.6059C31.0381 25.3854 30.952 25.1741 30.7992 25.0182C30.6464 24.8623 30.4393 24.7745 30.2232 24.7739H18.412ZM17.5965 30.1772C17.5965 29.7178 17.9616 29.3453 18.412 29.3453H26.8627C27.313 29.3453 27.6782 29.7178 27.6782 30.1772V30.2275C27.6776 30.448 27.5915 30.6593 27.4386 30.8152C27.2858 30.9711 27.0788 31.0589 26.8627 31.0595H18.412C18.1959 31.0589 17.9888 30.9711 17.836 30.8152C17.6832 30.6593 17.5971 30.448 17.5965 30.2275V30.1772ZM16.2007 14.4883C15.0866 14.4883 14.0181 14.9399 13.2304 15.7436C12.4426 16.5473 12 17.6374 12 18.774V33.0595C12 34.1961 12.4426 35.2862 13.2304 36.0899C14.0181 36.8936 15.0866 37.3451 16.2007 37.3451H28.5743C28.3124 36.8155 28.1999 36.222 28.2494 35.6309H16.2007C15.5322 35.6309 14.8912 35.36 14.4185 34.8777C13.9458 34.3955 13.6803 33.7415 13.6803 33.0595V18.774C13.6803 18.092 13.9458 17.438 14.4185 16.9557C14.8912 16.4735 15.5322 16.2026 16.2007 16.2026H34.6793C35.3478 16.2026 35.9889 16.4735 36.4615 16.9557C36.9342 17.438 37.1998 18.092 37.1998 18.774V22.4951C37.5582 22.5191 37.9189 22.6105 38.2673 22.7751L38.7658 23.0105C38.8046 23.0288 38.8427 23.0478 38.88 23.0676V18.774C38.88 17.6374 38.4375 16.5473 37.6497 15.7436C36.8619 14.9399 35.7934 14.4883 34.6793 14.4883H16.2007ZM34.7286 26.3167L35.1913 24.9533C35.2769 24.6948 35.4149 24.4575 35.5964 24.2571C35.7779 24.0566 35.9987 23.8974 36.2445 23.7897C36.4903 23.6821 36.7556 23.6286 37.0231 23.6325C37.2905 23.6365 37.5542 23.6979 37.7968 23.8128L38.2953 24.0482C39.1074 24.431 39.7885 25.119 39.9207 26.031C40.5704 30.5029 37.1337 36.6868 33.0797 38.3394C32.253 38.6765 31.34 38.408 30.613 37.8685L30.1672 37.5371C29.9492 37.3749 29.7662 37.1688 29.6294 36.9316C29.4927 36.6943 29.4051 36.431 29.3721 36.1578C29.3392 35.8846 29.3615 35.6074 29.4377 35.3434C29.514 35.0794 29.6426 34.8342 29.8155 34.6229L30.7228 33.5258C30.896 33.3143 31.1246 33.1576 31.3819 33.0738C31.6392 32.99 31.9145 32.9827 32.1757 33.0526L34.1327 33.5783C35.6106 32.5886 36.3921 31.1822 36.4772 29.359L35.0613 27.8618C34.8724 27.6604 34.7414 27.4098 34.6827 27.1375C34.6241 26.8651 34.6399 26.5805 34.7286 26.3167Z" fill="white"/>
</svg>
