<svg width="21" height="21" viewBox="0 0 21 21" fill="none" xmlns="http://www.w3.org/2000/svg">
<path d="M19.6921 1.9646L14.4363 1.96462V0.656404C14.4363 0.293741 14.1425 0 13.7799 0C13.4172 0 13.1235 0.293741 13.1235 0.656404V1.96429H7.87225V0.656404C7.87225 0.293741 7.57851 0 7.21585 0C6.85318 0 6.55944 0.293741 6.55944 0.656404V1.96429H1.31281C0.58781 1.96429 0 2.5521 0 3.2771V19.6872C0 20.4122 0.58781 21 1.31281 21H19.6921C20.4171 21 21.0049 20.4122 21.0049 19.6872V3.2771C21.0049 2.55241 20.4171 1.9646 19.6921 1.9646ZM19.6921 19.6872H1.31281V3.2771H6.55944V3.93842C6.55944 4.30107 6.85318 4.59483 7.21585 4.59483C7.57851 4.59483 7.87225 4.30107 7.87225 3.93842V3.27742H13.1235V3.93875C13.1235 4.30141 13.4172 4.59515 13.7799 4.59515C14.1425 4.59515 14.4363 4.30141 14.4363 3.93875V3.27742H19.6921V19.6872ZM15.0973 10.4978H16.4101C16.7724 10.4978 17.0665 10.2038 17.0665 9.84144V8.52863C17.0665 8.1663 16.7724 7.87223 16.4101 7.87223H15.0973C14.735 7.87223 14.4409 8.1663 14.4409 8.52863V9.84144C14.4409 10.2038 14.735 10.4978 15.0973 10.4978ZM15.0973 15.7487H16.4101C16.7724 15.7487 17.0665 15.455 17.0665 15.0923V13.7795C17.0665 13.4172 16.7724 13.1231 16.4101 13.1231H15.0973C14.735 13.1231 14.4409 13.4172 14.4409 13.7795V15.0923C14.4409 15.4553 14.735 15.7487 15.0973 15.7487ZM11.1589 13.1231H9.84606C9.48372 13.1231 9.18965 13.4172 9.18965 13.7795V15.0923C9.18965 15.455 9.48372 15.7487 9.84606 15.7487H11.1589C11.5212 15.7487 11.8153 15.455 11.8153 15.0923V13.7795C11.8153 13.4175 11.5212 13.1231 11.1589 13.1231ZM11.1589 7.87223H9.84606C9.48372 7.87223 9.18965 8.1663 9.18965 8.52863V9.84144C9.18965 10.2038 9.48372 10.4978 9.84606 10.4978H11.1589C11.5212 10.4978 11.8153 10.2038 11.8153 9.84144V8.52863C11.8153 8.16597 11.5212 7.87223 11.1589 7.87223ZM5.90763 7.87223H4.59483C4.23249 7.87223 3.93842 8.1663 3.93842 8.52863V9.84144C3.93842 10.2038 4.23249 10.4978 4.59483 10.4978H5.90763C6.26997 10.4978 6.56404 10.2038 6.56404 9.84144V8.52863C6.56404 8.16597 6.26997 7.87223 5.90763 7.87223ZM5.90763 13.1231H4.59483C4.23249 13.1231 3.93842 13.4172 3.93842 13.7795V15.0923C3.93842 15.455 4.23249 15.7487 4.59483 15.7487H5.90763C6.26997 15.7487 6.56404 15.455 6.56404 15.0923V13.7795C6.56404 13.4175 6.26997 13.1231 5.90763 13.1231Z" fill="#464F60"/>
</svg>
