<svg width="20" height="21" viewBox="0 0 20 21" fill="none" xmlns="http://www.w3.org/2000/svg">
<path d="M6.77896 17.7745C6.63988 18.2887 6.63075 18.8261 6.75229 19.3441C2.48356 18.781 0 15.9669 0 13.2228V12.4449C0 11.8261 0.263417 11.2326 0.732301 10.795C1.20119 10.3574 1.83713 10.1115 2.50023 10.1115H12.5395C12.5645 10.6638 12.7512 11.202 13.0862 11.6671H2.50023C2.2792 11.6671 2.06722 11.7491 1.91092 11.895C1.75463 12.0408 1.66682 12.2387 1.66682 12.4449V13.2228C1.66682 15.1719 3.48032 17.2674 6.77896 17.7745ZM8.3341 0C9.54979 0 10.7157 0.450712 11.5753 1.25298C12.4349 2.05525 12.9179 3.14337 12.9179 4.27795C12.9179 5.41253 12.4349 6.50065 11.5753 7.30292C10.7157 8.10519 9.54979 8.5559 8.3341 8.5559C7.11842 8.5559 5.95252 8.10519 5.0929 7.30292C4.23328 6.50065 3.75035 5.41253 3.75035 4.27795C3.75035 3.14337 4.23328 2.05525 5.0929 1.25298C5.95252 0.450712 7.11842 0 8.3341 0ZM8.3341 1.55562C7.56048 1.55562 6.81855 1.84244 6.27152 2.35297C5.72449 2.86351 5.41717 3.55594 5.41717 4.27795C5.41717 4.99996 5.72449 5.69239 6.27152 6.20293C6.81855 6.71347 7.56048 7.00028 8.3341 7.00028C9.10772 7.00028 9.84966 6.71347 10.3967 6.20293C10.9437 5.69239 11.251 4.99996 11.251 4.27795C11.251 3.55594 10.9437 2.86351 10.3967 2.35297C9.84966 1.84244 9.10772 1.55562 8.3341 1.55562ZM14.308 9.45972L14.7797 8.293C15.2097 7.23518 16.5499 6.71249 17.68 7.16207L18.3267 7.4203C19.1151 7.73454 19.7685 8.30389 19.9052 9.06926C20.6669 13.3083 16.7249 19.3379 12.1878 20.8764C11.3677 21.1533 10.481 20.9386 9.77924 20.4937L9.20252 20.1282C8.96574 19.9793 8.76638 19.7843 8.6182 19.5566C8.47002 19.3288 8.37654 19.0738 8.34421 18.8091C8.31189 18.5444 8.34149 18.2762 8.43096 18.0232C8.52044 17.7702 8.66767 17.5383 8.86249 17.3436L9.77091 16.3993C9.98429 16.18 10.2565 16.0178 10.5595 15.9295C10.8625 15.8412 11.1852 15.8299 11.4944 15.8969L13.5363 16.348C15.1553 15.4043 16.0232 14.0768 16.1398 12.3656L14.6764 11.0278C14.4578 10.8284 14.3065 10.5738 14.241 10.2951C14.1756 10.0165 14.1988 9.72613 14.308 9.45972Z" fill="#464F60"/>
</svg>
