<svg width="51" height="51" viewBox="0 0 51 51" fill="none" xmlns="http://www.w3.org/2000/svg">
<circle cx="25.2441" cy="25.2441" r="25.2441" fill="#A086EC"/>
<path d="M18.6256 23.5211C20.4656 26.98 23.43 29.8033 27.0461 31.5756L29.8572 28.8867C30.2022 28.5567 30.7133 28.4467 31.1606 28.5933C32.5917 29.0456 34.1378 29.29 35.7222 29.29C36.425 29.29 37 29.84 37 30.5122V34.7778C37 35.45 36.425 36 35.7222 36C23.7239 36 14 26.6989 14 15.2222C14 14.55 14.575 14 15.2778 14H19.75C20.4528 14 21.0278 14.55 21.0278 15.2222C21.0278 16.75 21.2833 18.2167 21.7561 19.5856C21.8967 20.0133 21.7944 20.49 21.4367 20.8322L18.6256 23.5211Z" fill="white"/>
</svg>
