<svg width="424" height="535" viewBox="0 0 424 535" fill="none" xmlns="http://www.w3.org/2000/svg">
<path d="M327.254 65.4955C332.651 66.8249 337.223 70.3938 339.823 75.3055L387.552 165.46C389.97 170.027 390.477 175.367 388.961 180.306L299.138 472.948C295.999 483.175 285.206 488.963 274.95 485.92L29.7526 413.17C19.5403 410.14 13.6495 399.475 16.5216 389.218L116.269 32.9676C119.109 22.8269 129.486 16.7727 139.711 19.2915L327.254 65.4955Z" fill="#F5F3FF" stroke="#A086EC" stroke-width="15"/>
<path d="M147 146L282 184" stroke="#C4C0EF" stroke-width="14" stroke-linecap="round"/>
<path d="M126.575 189.095L339.282 254.02" stroke="#53518B" stroke-width="14" stroke-linecap="round"/>
<path d="M112 237L282 283" stroke="#C4C0EF" stroke-width="14" stroke-linecap="round"/>
<path d="M278.924 530C265.933 530 253.07 527.441 241.068 522.47C229.066 517.498 218.16 510.212 208.974 501.026C199.788 491.84 192.502 480.934 187.53 468.932C182.559 456.93 180 444.067 180 431.076C180 418.085 182.559 405.221 187.53 393.219C192.502 381.217 199.788 370.312 208.974 361.126C218.16 351.94 229.066 344.653 241.068 339.682C253.07 334.71 265.933 332.151 278.924 332.151C305.161 332.151 330.322 342.574 348.874 361.126C367.426 379.678 377.849 404.839 377.849 431.076C377.849 457.312 367.426 482.474 348.874 501.026C330.322 519.578 305.161 530 278.924 530Z" fill="#E89393" stroke="#55528F" stroke-width="10" stroke-linecap="round"/>
<path d="M265.303 391.939C265.952 392.126 266.558 392.442 267.083 392.868C267.608 393.295 268.042 393.823 268.359 394.421L268.363 394.43L268.368 394.437L284.033 421.668L284.282 422.102L284.717 421.851L311.905 406.103L311.906 406.103L311.913 406.099C312.486 405.753 313.123 405.526 313.784 405.429C314.446 405.333 315.121 405.37 315.768 405.537C316.414 405.705 317.021 406 317.553 406.406C318.084 406.811 318.53 407.319 318.864 407.9C319.198 408.48 319.413 409.122 319.497 409.788C319.58 410.453 319.531 411.129 319.351 411.776C319.172 412.423 318.866 413.028 318.451 413.555C318.036 414.082 317.521 414.521 316.935 414.846L316.927 414.85L289.753 430.603L289.322 430.852L289.571 431.284L305.21 458.502L305.21 458.503C305.821 459.658 305.962 461.008 305.601 462.267C305.24 463.525 304.405 464.595 303.275 465.251C302.144 465.906 300.805 466.095 299.539 465.78C298.274 465.465 297.18 464.669 296.489 463.56L280.835 436.338L280.586 435.903L280.151 436.154L252.961 451.896C251.81 452.507 250.469 452.648 249.219 452.289C247.965 451.929 246.9 451.095 246.248 449.962C245.597 448.829 245.409 447.486 245.726 446.215C246.041 444.95 246.832 443.856 247.931 443.16L275.113 427.411L275.544 427.16L275.295 426.729L259.647 399.495L259.638 399.479L259.508 399.26C259.221 398.744 259.027 398.179 258.935 397.593C258.829 396.923 258.86 396.238 259.024 395.579C259.188 394.921 259.482 394.302 259.889 393.76C260.297 393.217 260.81 392.763 261.396 392.423C261.982 392.084 262.63 391.865 263.302 391.782C263.973 391.699 264.653 391.753 265.303 391.939Z" fill="#55528F" stroke="#55528F"/>
<circle cx="36.2046" cy="76.2046" r="13.231" transform="rotate(-75 36.2046 76.2046)" fill="#EFEBFF"/>
<circle cx="93.7224" cy="91.6246" r="6.6155" transform="rotate(-75 93.7224 91.6246)" fill="#EFEBFF"/>
<circle cx="28.1023" cy="168.102" r="6.6155" transform="rotate(-75 28.1023 168.102)" fill="#EFEBFF"/>
</svg>
