<svg width="51" height="52" viewBox="0 0 51 52" fill="none" xmlns="http://www.w3.org/2000/svg">
<circle cx="25.2441" cy="26.2208" r="25.2441" fill="#A086EC"/>
<path d="M39 32.2073L31.3135 39.9766L27.6013 36.2172L28.8433 34.9641L31.3135 37.4425L37.758 30.9542L39 32.2073ZM25.1311 17.3232V24.4519H30.4303V26.2341H23.3647V17.3232H25.1311ZM24.2479 36.9273C24.3951 36.9273 24.5423 36.9227 24.6895 36.9134C24.8367 36.9041 24.9839 36.8948 25.1311 36.8856L26.7043 38.4728C26.2903 38.5471 25.8809 38.6028 25.4761 38.6399C25.0713 38.677 24.6619 38.7002 24.2479 38.7095C23.0335 38.7095 21.8651 38.5517 20.7427 38.2361C19.6203 37.9205 18.5623 37.4703 17.5688 36.8856C16.5752 36.3008 15.6828 35.6046 14.8916 34.797C14.1004 33.9895 13.4104 33.0845 12.8216 32.082C12.2328 31.0795 11.7866 30.0167 11.483 28.8935C11.1794 27.7704 11.0184 26.5869 11 25.343C11 24.1178 11.1564 22.9389 11.4692 21.8065C11.782 20.6741 12.2282 19.6066 12.8078 18.6041C13.3874 17.6016 14.0774 16.7012 14.8778 15.903C15.6782 15.1047 16.5752 14.4085 17.5688 13.8145C18.5623 13.2204 19.6157 12.7702 20.7289 12.4639C21.8421 12.1576 23.0151 11.9951 24.2479 11.9766C25.4623 11.9766 26.6307 12.1344 27.7531 12.45C28.8755 12.7656 29.9335 13.2157 30.9271 13.8005C31.9206 14.3853 32.813 15.0815 33.6042 15.889C34.3954 16.6966 35.0854 17.6016 35.6742 18.6041C36.263 19.6066 36.7092 20.6694 37.0128 21.7926C37.3164 22.9157 37.4774 24.0992 37.4958 25.343C37.4958 25.8072 37.4682 26.2759 37.413 26.7493L35.0946 29.1024C35.5178 27.8678 35.7294 26.6147 35.7294 25.343C35.7294 24.2756 35.5914 23.2499 35.3154 22.266C35.0394 21.282 34.653 20.3631 34.1562 19.5091C33.6594 18.6552 33.0614 17.8708 32.3622 17.1561C31.6631 16.4413 30.8903 15.838 30.0439 15.346C29.1975 14.8541 28.2821 14.4642 27.2977 14.1765C26.3133 13.8887 25.2967 13.7495 24.2479 13.7588C23.1899 13.7588 22.1733 13.898 21.1981 14.1765C20.2229 14.4549 19.3121 14.8448 18.4657 15.346C17.6194 15.8473 16.842 16.4506 16.1336 17.1561C15.4252 17.8615 14.8272 18.6412 14.3396 19.4952C13.852 20.3492 13.4656 21.2728 13.1804 22.266C12.8952 23.2592 12.7572 24.2849 12.7664 25.343C12.7664 26.4105 12.9044 27.4362 13.1804 28.4201C13.4564 29.404 13.8428 30.323 14.3396 31.177C14.8364 32.0309 15.4344 32.8153 16.1336 33.53C16.8328 34.2448 17.6056 34.8481 18.4519 35.3401C19.2983 35.832 20.2137 36.2219 21.1981 36.5096C22.1825 36.7974 23.1991 36.9366 24.2479 36.9273Z" fill="white"/>
</svg>
