<svg width="16" height="16" viewBox="0 0 16 16" fill="none" xmlns="http://www.w3.org/2000/svg">
<path d="M3.61816 0.646484C5.03918 0.269992 6.62167 0.623703 7.72656 1.74609L7.73047 1.75098C8.9718 2.98391 9.29892 4.7445 8.71191 6.24121L8.59277 6.5459L8.82227 6.77734L15.4355 13.4219L15.458 13.4443L15.4824 13.4639C15.4861 13.4684 15.5021 13.4903 15.5 13.542C15.4975 13.6005 15.4701 13.6668 15.4082 13.7178L15.3896 13.7334L15.373 13.75L13.7002 15.415L13.6885 15.4268C13.632 15.4866 13.5801 15.4999 13.5459 15.5C13.5116 15.5 13.4591 15.4869 13.4023 15.4268L13.3926 15.416L6.7793 8.78711L6.5498 8.55664L6.24609 8.67383C5.48518 8.96703 4.65551 9.03075 3.85938 8.85645C3.16246 8.70381 2.51728 8.37448 1.98438 7.90234L1.76367 7.69238C0.661122 6.54523 0.253413 4.93561 0.650391 3.5166L3.30762 6.13379L3.66309 6.48438L4.01367 6.12891L6.18652 3.92969L6.53418 3.57715L6.18457 3.22559L3.61816 0.646484Z" stroke="#212E51"/>
</svg>
