<svg width="26" height="26" viewBox="0 0 26 26" fill="none" xmlns="http://www.w3.org/2000/svg">
<g filter="url(#filter0_d_29_15715)">
<path d="M15.56 12.52C16.6 12.52 17.16 10.7064 17.16 9C17.16 7.2936 16.6 5.48 15.56 5.48C14.52 5.48 13.96 7.2936 13.96 9C13.96 10.7064 14.52 12.52 15.56 12.52ZM15.56 6.12C15.9512 6.12 16.52 7.24 16.52 9C16.52 10.76 15.9512 11.88 15.56 11.88C15.1688 11.88 14.6 10.76 14.6 9C14.6 7.24 15.1688 6.12 15.56 6.12ZM20.68 16.36H17.0184C17.556 15.9512 18.0464 15.3528 18.4632 14.5832C19.2736 13.0864 19.72 11.104 19.72 9C19.72 6.896 19.2736 4.9136 18.4632 3.4168C17.6184 1.8584 16.4744 1 15.24 1H9.48C8.2456 1 7.1016 1.8584 6.2568 3.4168C5.4464 4.9136 5 6.896 5 9C5 11.104 5.4464 13.0864 6.2568 14.5832C7.1016 16.1416 8.2456 17 9.48 17H20.68C20.7649 17 20.8463 16.9663 20.9063 16.9063C20.9663 16.8463 21 16.7649 21 16.68C21 16.5951 20.9663 16.5137 20.9063 16.4537C20.8463 16.3937 20.7649 16.36 20.68 16.36ZM17.9 3.72C18.6608 5.1264 19.08 7 19.08 9C19.08 11 18.6608 12.8736 17.9 14.28C17.1728 15.6224 16.228 16.36 15.24 16.36C14.252 16.36 13.3072 15.6208 12.58 14.28C11.8192 12.8736 11.4 11 11.4 9C11.4 7 11.8192 5.1264 12.58 3.72C13.3072 2.3776 14.252 1.64 15.24 1.64C16.228 1.64 17.1728 2.3792 17.9 3.72ZM6.82 3.72C7.5472 2.3792 8.492 1.64 9.48 1.64H13.4616C12.924 2.0488 12.4336 2.6472 12.0168 3.4168C11.4568 4.4512 11.0704 5.7184 10.8856 7.0968L8.7064 5.54C8.65205 5.50105 8.58686 5.48011 8.52 5.48011C8.45314 5.48011 8.38795 5.50105 8.3336 5.54L5.7336 7.4C5.8952 6.0128 6.2672 4.7424 6.82 3.72ZM5.6608 8.2352L8.52 6.1936L10.8072 7.8272C10.776 8.212 10.76 8.604 10.76 9C10.7551 10.1572 10.8981 11.3103 11.1856 12.4312L8.7056 10.66C8.65125 10.6211 8.58606 10.6001 8.5192 10.6001C8.45233 10.6001 8.38715 10.6211 8.3328 10.66L6.0504 12.2904C5.77275 11.2158 5.63481 10.1099 5.64 9C5.64 8.74347 5.64693 8.48853 5.6608 8.2352ZM9.48 16.36C8.492 16.36 7.5472 15.6208 6.82 14.28C6.59036 13.8506 6.39792 13.4023 6.2448 12.94L8.52 11.3136L11.5056 13.4456C11.6491 13.8363 11.8199 14.2164 12.0168 14.5832C12.4336 15.3528 12.924 15.9512 13.4616 16.36H9.48Z" fill="#212E51"/>
<path d="M15.2402 0.900391C16.5262 0.900499 17.6971 1.79446 18.5508 3.36914C19.3708 4.88362 19.8203 6.88324 19.8203 9C19.8203 11.1168 19.3708 13.1164 18.5508 14.6309C18.1856 15.3051 17.7626 15.8527 17.2979 16.2598H20.6797C20.7909 16.2598 20.8978 16.3042 20.9766 16.3828C21.0553 16.4615 21.0995 16.5684 21.0996 16.6797C21.0996 16.7911 21.0553 16.8978 20.9766 16.9766C20.8978 17.0553 20.7911 17.0996 20.6797 17.0996H9.48047C8.19438 17.0996 7.02267 16.2057 6.16895 14.6309C5.34897 13.1164 4.90039 11.1168 4.90039 9C4.90039 6.88324 5.34897 4.88362 6.16895 3.36914C7.02267 1.7943 8.19438 0.900391 9.48047 0.900391H15.2402ZM6.36426 12.9766C6.51166 13.4091 6.69269 13.8294 6.9082 14.2324L7.04492 14.4736C7.74257 15.6447 8.60496 16.2598 9.48047 16.2598H13.1826C12.7849 15.9114 12.4173 15.4606 12.0908 14.915L11.9287 14.6309C11.7346 14.2693 11.5657 13.8944 11.4229 13.5098L8.51953 11.4355L6.36426 12.9766ZM15.2402 1.74023C14.3064 1.74023 13.388 2.43848 12.668 3.76758C11.9168 5.15617 11.5 7.01255 11.5 9C11.5 10.9874 11.9168 12.8438 12.668 14.2324C13.388 15.56 14.3065 16.2598 15.2402 16.2598C16.174 16.2596 17.0925 15.5615 17.8125 14.2324C18.5636 12.8439 18.9805 10.9874 18.9805 9C18.9805 7.01264 18.5636 5.15614 17.8125 3.76758C17.0925 2.44004 16.1739 1.74035 15.2402 1.74023ZM15.5596 5.37988C16.1461 5.37988 16.5703 5.88965 16.8428 6.5625C17.1189 7.24421 17.2598 8.13774 17.2598 9C17.2598 9.86226 17.1189 10.7558 16.8428 11.4375C16.5703 12.1103 16.1461 12.6201 15.5596 12.6201C14.9733 12.6199 14.5498 12.1102 14.2773 11.4375C14.0013 10.7558 13.8604 9.86226 13.8604 9C13.8604 8.13774 14.0013 7.24421 14.2773 6.5625C14.5498 5.88984 14.9733 5.38013 15.5596 5.37988ZM5.75781 8.28711C5.74569 8.52331 5.74023 8.76095 5.74023 9C5.73532 10.0521 5.86094 11.1008 6.1123 12.1221L8.27441 10.5791C8.34575 10.528 8.43177 10.5 8.51953 10.5C8.60717 10.5001 8.69243 10.528 8.76367 10.5791L11.0254 12.1934C10.779 11.1471 10.6556 10.0755 10.6602 9L10.6719 8.40527C10.6791 8.22758 10.6906 8.0511 10.7041 7.87598L8.51953 6.31641L5.75781 8.28711ZM15.5596 6.21973C15.5081 6.21995 15.4249 6.26018 15.3223 6.38574C15.2229 6.5073 15.1195 6.69176 15.0264 6.93555C14.8403 7.42227 14.7002 8.13001 14.7002 9C14.7002 9.86999 14.8403 10.5777 15.0264 11.0645C15.1195 11.3082 15.2229 11.4927 15.3223 11.6143C15.4249 11.7398 15.5081 11.7801 15.5596 11.7803C15.611 11.7803 15.6949 11.7402 15.7979 11.6143C15.8972 11.4927 16.0006 11.3082 16.0938 11.0645C16.2798 10.5777 16.4199 9.86997 16.4199 9C16.4199 8.13003 16.2798 7.42227 16.0938 6.93555C16.0006 6.69178 15.8972 6.5073 15.7979 6.38574C15.6949 6.25983 15.611 6.21973 15.5596 6.21973ZM9.48047 1.74023C8.60496 1.74023 7.74257 2.35532 7.04492 3.52637L6.9082 3.76758C6.39291 4.72062 6.0366 5.89564 5.86328 7.18359L8.27539 5.45898L8.33105 5.4248C8.38924 5.39551 8.4538 5.37996 8.51953 5.37988C8.60729 5.37988 8.69331 5.40786 8.76465 5.45898L10.8105 6.9209C11.0046 5.5957 11.3841 4.37509 11.9287 3.36914C12.294 2.69474 12.7178 2.14736 13.1826 1.74023H9.48047Z" stroke="#212E51" stroke-width="0.2"/>
</g>
<defs>
<filter id="filter0_d_29_15715" x="0.800049" y="0.799988" width="24.3999" height="24.4" filterUnits="userSpaceOnUse" color-interpolation-filters="sRGB">
<feFlood flood-opacity="0" result="BackgroundImageFix"/>
<feColorMatrix in="SourceAlpha" type="matrix" values="0 0 0 0 0 0 0 0 0 0 0 0 0 0 0 0 0 0 127 0" result="hardAlpha"/>
<feOffset dy="4"/>
<feGaussianBlur stdDeviation="2"/>
<feComposite in2="hardAlpha" operator="out"/>
<feColorMatrix type="matrix" values="0 0 0 0 0 0 0 0 0 0 0 0 0 0 0 0 0 0 0.25 0"/>
<feBlend mode="normal" in2="BackgroundImageFix" result="effect1_dropShadow_29_15715"/>
<feBlend mode="normal" in="SourceGraphic" in2="effect1_dropShadow_29_15715" result="shape"/>
</filter>
</defs>
</svg>
