<svg width="506" height="530" viewBox="0 0 506 530" fill="none" xmlns="http://www.w3.org/2000/svg">
<mask id="mask0_29_16018" style="mask-type:alpha" maskUnits="userSpaceOnUse" x="0" y="0" width="509" height="530">
<path d="M35 0.5H474C493.054 0.500016 508.5 15.9462 508.5 35V495C508.5 514.054 493.054 529.5 474 529.5H35C15.9462 529.5 0.5 514.054 0.5 495V35C0.5 15.9462 15.9462 0.5 35 0.5Z" fill="white" stroke="#E1E1E1"/>
</mask>
<g mask="url(#mask0_29_16018)">
<circle cx="11.9154" cy="70.1291" r="8.77273" transform="rotate(-60 11.9154 70.1291)" fill="#EFEBFF"/>
<circle cx="114.759" cy="190.283" r="8.77273" transform="rotate(-60 114.759 190.283)" fill="#EFEBFF"/>
<path d="M107.688 77.939C102.845 77.9391 98.2003 79.8595 94.7754 83.2779C91.3504 86.6965 89.4258 91.3336 89.4258 96.1685V96.1851L89.4277 96.2007L135.277 444.63C135.282 449.459 137.205 454.088 140.626 457.503C144.051 460.921 148.697 462.841 153.54 462.841H291.635C296.305 462.847 300.784 464.688 304.104 467.965L304.11 467.971L304.117 467.977L345.208 503.252L345.588 503.578L345.62 503.078L347.076 480.586V480.571C347.076 475.869 348.947 471.36 352.278 468.035C355.609 464.71 360.128 462.841 364.839 462.841H380.078C384.921 462.841 389.566 460.921 392.991 457.503C396.416 454.084 398.341 449.447 398.341 444.612V96.1685C398.341 91.3336 396.416 86.6965 392.991 83.2779C389.566 79.8595 384.921 77.9391 380.078 77.939H107.688ZM117.765 444.595L117.762 444.579L71.9131 96.1519C71.9175 86.6874 75.6863 77.6114 82.3916 70.9185C89.1007 64.2219 98.2002 60.4596 107.688 60.4595H380.078C389.566 60.4596 398.666 64.2219 405.375 70.9185C412.084 77.6153 415.853 86.6981 415.854 96.1685V444.612C415.853 454.082 412.084 463.165 405.375 469.862C398.666 476.558 389.566 480.321 380.078 480.321H364.589V509.679C364.591 513.176 363.557 516.597 361.616 519.508C359.676 522.42 356.915 524.694 353.683 526.044C350.451 527.391 346.892 527.756 343.453 527.09C340.014 526.425 336.849 524.759 334.356 522.303L291.811 480.392L291.737 480.321H153.54C144.052 480.321 134.951 476.559 128.242 469.862C121.533 463.165 117.765 454.082 117.765 444.612V444.595Z" fill="#55528F" stroke="#55528F" stroke-width="0.5"/>
<path d="M397.655 78.6464H90.1187V463.067H299.243L341.809 501.868L346.106 506.167V480.376C354.703 450.286 393.391 476.077 397.69 445.987C401.989 415.897 397.655 78.6464 397.655 78.6464Z" fill="#D7D0F9"/>
<path d="M52.3682 23.306H407.715V416.835H166.079L109.224 470.355L102.117 419.983L52.3682 413.687V23.306Z" fill="#EFEBFF"/>
<path d="M84.6211 102.413L228.482 102.906" stroke="#C4C0EF" stroke-width="14" stroke-linecap="round"/>
<path d="M93.2676 192.773L315.662 192.574" stroke="#53518B" stroke-width="14" stroke-linecap="round"/>
<path d="M101.134 291.843L277.332 296.121" stroke="#C4C0EF" stroke-width="14" stroke-linecap="round"/>
<path fill-rule="evenodd" clip-rule="evenodd" d="M99.9569 491.886C96.2482 490.51 93.0812 488.191 90.8545 485.223C88.6277 482.254 87.4406 478.767 87.4427 475.202V434.473H70.1999C59.3888 434.473 49.0206 430.664 41.376 423.884C33.7314 417.104 29.4368 407.908 29.4368 398.32V47.9988C29.4368 38.4104 33.7314 29.2148 41.376 22.4348C49.0206 15.6548 59.3888 11.8459 70.1999 11.8459H378.409C389.22 11.8459 399.588 15.6548 407.233 22.4348C414.877 29.2148 419.172 38.4104 419.172 47.9988V398.32C419.172 407.908 414.877 417.104 407.233 423.884C399.588 430.664 389.22 434.473 378.409 434.473H170.273L122.132 488.072C119.272 490.576 115.64 492.274 111.695 492.953C107.749 493.631 103.665 493.26 99.9569 491.886ZM107.824 434.473C107.824 429.679 105.677 425.081 101.855 421.691C98.0323 418.301 92.8482 416.397 87.4427 416.397H70.1999C64.7943 416.397 59.6102 414.492 55.7879 411.102C51.9657 407.712 49.8183 403.114 49.8183 398.32V47.9988C49.8183 43.2046 51.9657 38.6068 55.7879 35.2168C59.6102 31.8268 64.7943 29.9223 70.1999 29.9223H378.409C383.814 29.9223 388.998 31.8268 392.821 35.2168C396.643 38.6068 398.79 43.2046 398.79 47.9988V398.32C398.79 403.114 396.643 407.712 392.821 411.102C388.998 414.492 383.814 416.397 378.409 416.397H170.273C164.915 416.402 159.775 418.279 155.965 421.621L107.824 475.202V434.473Z" fill="url(#paint0_linear_29_16018)"/>
<path d="M404.355 300.925C391.835 300.925 379.438 298.459 367.871 293.668C356.304 288.877 345.795 281.855 336.942 273.002C328.089 264.149 321.067 253.639 316.276 242.073C311.484 230.506 309.019 218.109 309.019 205.589C309.019 193.069 311.484 180.672 316.276 169.105C321.067 157.539 328.089 147.029 336.942 138.176C345.795 129.323 356.304 122.301 367.871 117.51C379.438 112.719 391.835 110.253 404.355 110.253C429.64 110.253 453.889 120.297 471.768 138.176C489.647 156.055 499.691 180.304 499.691 205.589C499.691 230.874 489.647 255.123 471.768 273.002C453.889 290.881 429.64 300.925 404.355 300.925Z" fill="#5DEFBC" stroke="#55528F" stroke-width="11" stroke-linecap="round"/>
<path d="M353.431 206.471L394.289 240.519L421.528 206.471L448.767 172.422" fill="#5DEFBC"/>
<path d="M353.431 206.471L394.289 240.519L421.528 206.471L448.767 172.422" stroke="#55528F" stroke-width="11" stroke-linecap="round"/>
<circle cx="487.951" cy="447.436" r="11.4628" fill="#EFEBFF"/>
<circle cx="17.9735" cy="447.436" r="11.4628" fill="#EFEBFF"/>
</g>
<defs>
<linearGradient id="paint0_linear_29_16018" x1="224.304" y1="11.8459" x2="224.304" y2="493.283" gradientUnits="userSpaceOnUse">
<stop stop-color="#A086EC"/>
<stop offset="1" stop-color="#5B4C86"/>
</linearGradient>
</defs>
</svg>
