<svg width="22" height="22" viewBox="0 0 22 22" fill="none" xmlns="http://www.w3.org/2000/svg">
<path d="M9.6554 22C9.3535 22 9.09182 21.9067 8.87036 21.7201C8.64804 21.5335 8.51007 21.3009 8.45643 21.0222L8.11517 18.4653C7.70081 18.3472 7.25271 18.1622 6.77088 17.9104C6.28991 17.6579 5.8803 17.3873 5.54207 17.0989L3.0572 18.106C2.78298 18.2201 2.50443 18.2323 2.22156 18.1427C1.93869 18.053 1.72069 17.884 1.56758 17.6354L0.16749 15.3633C0.014376 15.1148 -0.0306069 14.8549 0.032542 14.5836C0.0956909 14.3122 0.24621 14.0898 0.4841 13.9162L2.65365 12.3884C2.61473 12.1668 2.58315 11.9391 2.55893 11.7052C2.53298 11.4706 2.52 11.2428 2.52 11.022C2.52 10.8167 2.53298 10.6007 2.55893 10.3742C2.58315 10.1477 2.61473 9.89267 2.65365 9.60911L0.4841 8.08134C0.24621 7.90778 0.100016 7.68167 0.0455178 7.403C-0.00898057 7.12434 0.0398952 6.86034 0.192145 6.611L1.56758 4.411C1.72069 4.17715 1.93869 4.01175 2.22156 3.91478C2.50443 3.81782 2.78298 3.82637 3.0572 3.94045L5.51741 4.92312C5.90496 4.61919 6.32451 4.345 6.77607 4.10056C7.2259 3.85612 7.66404 3.66708 8.09052 3.53345L8.45773 0.976561C8.5105 0.697894 8.64804 0.465264 8.87036 0.278672C9.09268 0.0920793 9.35436 -0.000809501 9.6554 5.31401e-06H12.3544C12.6563 5.31401e-06 12.9179 0.0933017 13.1394 0.279894C13.3617 0.466487 13.4997 0.699116 13.5533 0.977783L13.8946 3.55912C14.392 3.72371 14.8314 3.91234 15.2129 4.125C15.5944 4.33767 15.9876 4.60412 16.3924 4.92434L18.9772 3.94167C19.2523 3.8276 19.5313 3.81904 19.8142 3.916C20.097 4.01297 20.3146 4.17837 20.4668 4.41223L21.8423 6.63545C21.9954 6.88478 22.0404 7.14471 21.9772 7.41523C21.9141 7.68574 21.7636 7.9086 21.5257 8.08378L19.2575 9.68C19.3284 9.9326 19.3682 10.1644 19.3769 10.3754C19.3855 10.5865 19.3898 10.7943 19.3898 10.9988C19.3898 11.1886 19.3812 11.3887 19.3639 11.5989C19.3475 11.8099 19.3094 12.065 19.2497 12.364L21.4426 13.9162C21.6805 14.0898 21.8354 14.3122 21.9072 14.5836C21.979 14.8549 21.9383 15.1148 21.7852 15.3633L20.402 17.611C20.2497 17.8603 20.0278 18.0294 19.7363 18.1182C19.4448 18.2079 19.1619 18.1956 18.8877 18.0816L16.3924 17.0744C15.9885 17.3947 15.5819 17.6689 15.1727 17.897C14.7635 18.1251 14.3375 18.3064 13.8946 18.4409L13.552 21.021C13.4993 21.2997 13.3617 21.5323 13.1394 21.7189C12.9171 21.9055 12.6554 21.9992 12.3544 22H9.6554ZM9.7073 20.7778H12.2454L12.7242 17.468C13.3782 17.305 13.9664 17.0814 14.4889 16.797C15.0131 16.5126 15.546 16.1232 16.0875 15.6286L19.325 16.9278L20.6148 14.85L17.7744 12.8407C17.8825 12.4927 17.9543 12.1725 17.9898 11.88C18.0244 11.5883 18.0417 11.295 18.0417 11C18.0417 10.6904 18.0244 10.397 17.9898 10.12C17.9552 9.84297 17.8834 9.53863 17.7744 9.207L20.6641 7.15L19.3743 5.07223L16.0629 6.38C15.6701 5.97341 15.1541 5.59249 14.5148 5.23723C13.8747 4.88278 13.2692 4.64771 12.6982 4.532L12.3025 1.22223H9.71509L9.31024 4.50878C8.65626 4.63997 8.05505 4.85182 7.50661 5.14434C6.95903 5.43604 6.41404 5.83734 5.87165 6.34823L2.63549 5.07223L1.34569 7.15L4.16015 9.13C4.05201 9.40378 3.97632 9.70119 3.93307 10.0222C3.88982 10.3433 3.86819 10.6773 3.86819 11.0244C3.86819 11.3341 3.88982 11.6417 3.93307 11.9472C3.97632 12.2528 4.0438 12.5502 4.13549 12.8394L1.34569 14.85L2.63549 16.9278L5.847 15.6444C6.35652 16.1284 6.88506 16.5167 7.43264 16.8092C7.98109 17.1017 8.59874 17.3295 9.28559 17.4924L9.7073 20.7778ZM10.9698 14.0556C11.8747 14.0556 12.6416 13.7594 13.2705 13.167C13.8994 12.5746 14.2138 11.8523 14.2138 11C14.2138 10.1477 13.8994 9.42537 13.2705 8.833C12.6416 8.24063 11.8747 7.94445 10.9698 7.94445C10.0598 7.94445 9.29164 8.24063 8.66534 8.833C8.03905 9.42537 7.7259 10.1477 7.7259 11C7.7259 11.8523 8.03905 12.5746 8.66534 13.167C9.29164 13.7594 10.0598 14.0556 10.9698 14.0556Z" fill="#464F60"/>
</svg>
