<svg width="479" height="610" viewBox="0 0 479 610" fill="none" xmlns="http://www.w3.org/2000/svg">
<mask id="mask0_29_15982" style="mask-type:alpha" maskUnits="userSpaceOnUse" x="0" y="0" width="477" height="610">
<path d="M12 1H465C471.075 1 476 5.92487 476 12V598C476 604.075 471.075 609 465 609H12C5.92487 609 1 604.075 1 598V12C1.00001 5.92487 5.92487 1 12 1Z" fill="white" stroke="#52518B" stroke-width="2"/>
</mask>
<g mask="url(#mask0_29_15982)">
<path d="M24.166 49.6501L170.207 10.5186L213.543 172.251L114.235 198.861L96.7624 227.118L88.2946 207.198L67.1555 210.089L24.166 49.6501Z" fill="#EFEBFF"/>
<path fill-rule="evenodd" clip-rule="evenodd" d="M95.329 236.979C93.6532 236.822 92.0964 236.218 90.8543 235.243C89.6122 234.268 88.7404 232.966 88.3486 231.5L85.7623 221.848C84.7136 217.934 80.6908 215.612 76.777 216.66C72.3339 217.851 67.6533 217.427 63.7649 215.483C59.8765 213.538 57.0988 210.232 56.0429 206.291L17.4649 62.3158C16.409 58.3751 17.1614 54.123 19.5565 50.4947C21.9517 46.8664 25.7934 44.1592 30.2365 42.9687L156.904 9.02816C161.348 7.83762 166.028 8.26126 169.917 10.2059C173.805 12.1505 176.583 15.4568 177.638 19.3974L216.217 163.373C217.272 167.313 216.52 171.565 214.125 175.194C211.73 178.822 207.888 181.529 203.445 182.72L123.074 204.255C119.784 205.136 117.024 207.375 115.482 210.411L104.023 232.969C103.123 234.314 101.817 235.411 100.271 236.125C98.7237 236.838 97.0045 237.135 95.329 236.979ZM92.2399 212.517C91.7119 210.547 90.3231 208.894 88.3789 207.921C86.4347 206.949 84.0944 206.737 81.8729 207.332L74.7864 209.231C72.5648 209.826 70.2245 209.615 68.2803 208.642C66.3361 207.67 64.9473 206.017 64.4194 204.047L25.8413 60.0713C25.3134 58.101 25.6896 55.9749 26.8871 54.1608C28.0847 52.3466 30.0055 50.993 32.2271 50.3978L158.895 16.4572C161.117 15.862 163.457 16.0738 165.401 17.0461C167.345 18.0184 168.734 19.6715 169.262 21.6418L207.84 165.617C208.368 167.587 207.992 169.714 206.794 171.528C205.597 173.342 203.676 174.695 201.454 175.291L115.915 198.211C113.713 198.803 111.807 200.141 110.61 201.933L104.576 213.807C101.817 219.236 93.816 218.399 92.2399 212.517Z" fill="#52518B"/>
<circle cx="245.334" cy="45.92" r="9.75435" transform="rotate(-15 245.334 45.92)" fill="#EFEBFF"/>
<circle cx="256.694" cy="88.3223" r="4.87717" transform="rotate(-15 256.694 88.3223)" fill="#EFEBFF"/>
<circle cx="249.887" cy="175.987" r="4.87717" transform="rotate(-15 249.887 175.987)" fill="#EFEBFF"/>
<circle cx="56.7335" cy="227.737" r="4.87717" transform="rotate(-15 56.7335 227.737)" fill="#EFEBFF"/>
<circle cx="166.998" cy="329.362" r="160.442" fill="url(#paint0_linear_29_15982)" stroke="#55528F" stroke-width="5"/>
<circle cx="163.676" cy="326.039" r="117.212" fill="#F1EEFF" stroke="#55528F" stroke-width="5"/>
<circle cx="163.675" cy="326.032" r="50.7054" fill="url(#paint1_linear_29_15982)" stroke="#55528F" stroke-width="5"/>
<path d="M300.179 119.263C297.952 121.769 296.874 125.093 297.208 128.429L303.335 189.701L360.481 198.723C364.273 199.322 368.123 198.07 370.837 195.356L429.974 136.219C437.416 128.777 432.356 116.043 421.836 115.739L387.141 114.735C380.584 114.546 375.394 109.126 375.489 102.566L376.025 65.6713C376.186 54.5524 362.445 49.2136 355.057 57.5249L300.179 119.263Z" fill="url(#paint2_linear_29_15982)"/>
<path d="M303.335 189.701L163.671 326.04M303.335 189.701L297.208 128.429C296.874 125.093 297.952 121.769 300.179 119.263L355.057 57.5249C362.445 49.2136 376.186 54.5524 376.025 65.6713L375.489 102.566C375.394 109.126 380.584 114.546 387.141 114.735L421.836 115.739C432.356 116.043 437.416 128.777 429.974 136.219L370.837 195.356C368.123 198.07 364.273 199.322 360.481 198.723L303.335 189.701Z" stroke="#55528F" stroke-width="5" stroke-linecap="round" stroke-linejoin="round"/>
<path d="M18.5979 537.8L50.3149 463.794C53.1559 457.165 61.1612 454.522 67.391 458.156L89.6241 471.125C95.3126 474.443 97.2639 481.726 93.9965 487.444L59.1183 548.481C56.9818 552.22 53.0056 554.527 48.6994 554.527H29.6277C21.0127 554.527 15.2043 545.719 18.5979 537.8Z" fill="#9980EA" stroke="#504E8B" stroke-width="5" stroke-linecap="round"/>
<path d="M305.836 537.501L274.996 470.68C272.029 464.252 264.169 461.776 258.054 465.344L235.964 478.229C230.097 481.652 228.238 489.259 231.865 495.002L265.929 548.938C268.128 552.419 271.958 554.53 276.075 554.53H294.94C303.698 554.53 309.506 545.452 305.836 537.501Z" fill="#9980EA" stroke="#504E8B" stroke-width="5" stroke-linecap="round"/>
<path d="M264.879 418.941L413.496 379.12L456.832 540.852L355.773 567.931L337.888 596.298L329.368 576.393L307.868 579.38L264.879 418.941Z" fill="#EFEBFF"/>
<path fill-rule="evenodd" clip-rule="evenodd" d="M338.614 605.584C336.938 605.427 335.382 604.822 334.139 603.848C332.897 602.873 332.026 601.571 331.634 600.105L329.047 590.453C327.999 586.539 323.976 584.216 320.062 585.265C315.619 586.456 310.938 586.032 307.05 584.087C303.162 582.143 300.384 578.836 299.328 574.896L260.75 430.921C259.694 426.98 260.447 422.728 262.842 419.099C265.237 415.471 269.079 412.764 273.522 411.574L400.19 377.633C404.633 376.442 409.313 376.866 413.202 378.811C417.09 380.755 419.868 384.062 420.924 388.002L459.502 531.977C460.558 535.918 459.805 540.17 457.41 543.798C455.015 547.427 451.173 550.134 446.73 551.324L366.36 572.86C363.07 573.741 360.309 575.979 358.767 579.016L347.308 601.574C346.408 602.918 345.103 604.016 343.556 604.73C342.009 605.443 340.29 605.74 338.614 605.584ZM335.525 581.122C334.997 579.151 333.608 577.498 331.664 576.526C329.72 575.554 327.38 575.342 325.158 575.937L318.072 577.836C315.85 578.431 313.51 578.219 311.566 577.247C309.621 576.275 308.232 574.622 307.705 572.651L269.126 428.676C268.599 426.706 268.975 424.58 270.172 422.766C271.37 420.951 273.291 419.598 275.512 419.003L402.18 385.062C404.402 384.467 406.742 384.679 408.686 385.651C410.63 386.623 412.019 388.276 412.547 390.247L451.125 534.222C451.653 536.192 451.277 538.318 450.079 540.132C448.882 541.947 446.961 543.3 444.739 543.895L359.2 566.816C356.998 567.408 355.093 568.745 353.895 570.538L347.861 582.412C345.102 587.84 337.101 587.004 335.525 581.122Z" fill="#52518B"/>
<path d="M299 456.377L353.4 442" stroke="#C4C0EF" stroke-width="9" stroke-linecap="round"/>
<path d="M313 489.588L397 467" stroke="#53518B" stroke-width="9" stroke-linecap="round"/>
<path d="M326 526.221L393 510" stroke="#C4C0EF" stroke-width="9" stroke-linecap="round"/>
<circle cx="461.947" cy="414.521" r="9.75435" transform="rotate(-15 461.947 414.521)" fill="#EFEBFF"/>
<circle cx="473.306" cy="456.928" r="4.87717" transform="rotate(-15 473.306 456.928)" fill="#EFEBFF"/>
<circle cx="466.499" cy="544.585" r="4.87717" transform="rotate(-15 466.499 544.585)" fill="#EFEBFF"/>
<circle cx="300.024" cy="596.34" r="4.87717" transform="rotate(-15 300.024 596.34)" fill="#EFEBFF"/>
<path d="M52.5859 80.3258L106.986 65.9492" stroke="#C4C0EF" stroke-width="8" stroke-linecap="round"/>
<path d="M65 113.588L149 91" stroke="#53518B" stroke-width="8" stroke-linecap="round"/>
<path d="M78 150.221L145 134" stroke="#C4C0EF" stroke-width="8" stroke-linecap="round"/>
</g>
<defs>
<linearGradient id="paint0_linear_29_15982" x1="206.792" y1="233.844" x2="48.2871" y2="407.094" gradientUnits="userSpaceOnUse">
<stop stop-color="#C7B6FA"/>
<stop offset="0.391611" stop-color="#F4F2FB"/>
<stop offset="0.54056" stop-color="#E0D6FB"/>
</linearGradient>
<linearGradient id="paint1_linear_29_15982" x1="199.42" y1="248.586" x2="88.8351" y2="377.602" gradientUnits="userSpaceOnUse">
<stop stop-color="#A086EC"/>
<stop offset="0.498184" stop-color="white"/>
<stop offset="1" stop-color="#A086EC"/>
</linearGradient>
<linearGradient id="paint2_linear_29_15982" x1="306.66" y1="33.4095" x2="306.66" y2="326.04" gradientUnits="userSpaceOnUse">
<stop stop-color="#C7B6FA"/>
<stop offset="0.424634" stop-color="white"/>
<stop offset="1" stop-color="#8A7EF6"/>
</linearGradient>
</defs>
</svg>
