<svg width="13" height="14" viewBox="0 0 13 14" fill="none" xmlns="http://www.w3.org/2000/svg">
<path d="M7.12266 6.54526L8.52203 5.04687L7.12266 3.54849C7.04844 3.46901 7.00674 3.36121 7.00674 3.24881C7.00674 3.13641 7.04844 3.02862 7.12266 2.94914C7.19689 2.86966 7.29756 2.82501 7.40254 2.82501C7.50751 2.82501 7.60818 2.86966 7.68241 2.94914L9.08178 4.44752L10.4811 2.94914C10.5554 2.86966 10.656 2.82501 10.761 2.82501C10.866 2.82501 10.9667 2.86966 11.0409 2.94914C11.1151 3.02862 11.1568 3.13641 11.1568 3.24881C11.1568 3.36121 11.1151 3.46901 11.0409 3.54849L9.64152 5.04688L11.0409 6.54526C11.1151 6.62474 11.1568 6.73254 11.1568 6.84494C11.1568 6.95734 11.1151 7.06513 11.0409 7.14461C10.9667 7.22409 10.866 7.26874 10.761 7.26874C10.656 7.26874 10.5554 7.22409 10.4811 7.14461L9.08178 5.64623L7.68241 7.14461C7.60818 7.22409 7.50751 7.26874 7.40254 7.26874C7.29756 7.26874 7.19689 7.22409 7.12266 7.14461C7.04844 7.06513 7.00674 6.95734 7.00674 6.84494C7.00674 6.73254 7.04844 6.62474 7.12266 6.54526Z" fill="#EF1212"/>
<path d="M2.41696 7.11057C3.37841 8.97923 4.9274 10.5045 6.81691 11.462L8.28578 10.0093C8.46605 9.83102 8.73312 9.77159 8.9668 9.85083C9.71459 10.0951 10.5225 10.2272 11.3504 10.2272C11.7176 10.2272 12.0181 10.5243 12.0181 10.8875V13.192C12.0181 13.5551 11.7176 13.8523 11.3504 13.8523C5.08096 13.8523 0 8.82736 0 2.6271C0 2.26393 0.300451 1.9668 0.667669 1.9668H3.00451C3.37173 1.9668 3.67218 2.26393 3.67218 2.6271C3.67218 3.45248 3.80572 4.24485 4.05275 4.98439C4.1262 5.21549 4.07278 5.47301 3.88584 5.6579L2.41696 7.11057Z" fill="#EF1212"/>
</svg>
